<?xml version="1.0" encoding="utf-8"?>
<!-- Generator: Adobe Illustrator 21.0.0, SVG Export Plug-In . SVG Version: 6.00 Build 0)  -->
<svg version="1.1" id="Layer_1" xmlns="http://www.w3.org/2000/svg" xmlns:xlink="http://www.w3.org/1999/xlink" x="0px" y="0px"
	 viewBox="0 0 16 16" style="enable-background:new 0 0 16 16;" xml:space="preserve">
<style type="text/css">
	.st0{fill:none;stroke:#FFFFFF;stroke-width:0.5;stroke-linecap:round;stroke-linejoin:round;stroke-miterlimit:10;}
	.st1{fill:#FFFFFF;}
</style>
<g>
	<path d="M14.5,16h-13C0.7,16,0,15.3,0,14.5v-13C0,0.7,0.7,0,1.5,0h13C15.3,0,16,0.7,16,1.5v13C16,15.3,15.3,16,14.5,16z"/>
	<g>
		<g>
			<path class="st0" d="M14.2,15.1H1.8c-0.5,0-0.9-0.4-0.9-0.9V1.8c0-0.5,0.4-0.9,0.9-0.9h12.5c0.5,0,0.9,0.4,0.9,0.9v12.5
				C15.1,14.7,14.7,15.1,14.2,15.1z"/>
			<path class="st0" d="M3.7,3.7H0.9V1.6c0-0.4,0.3-0.7,0.7-0.7h2.2V3.7z"/>
			<rect x="3.7" y="0.9" class="st0" width="2.8" height="2.8"/>
			<rect x="6.6" y="0.9" class="st0" width="2.8" height="2.8"/>
			<rect x="9.4" y="0.9" class="st0" width="2.8" height="2.8"/>
			<path class="st0" d="M15.1,3.7h-2.8V0.9h2.2c0.4,0,0.7,0.3,0.7,0.7V3.7z"/>
			<path class="st0" d="M3.7,15.1H1.6c-0.4,0-0.7-0.3-0.7-0.7v-2.2h2.8V15.1z"/>
			<rect x="3.7" y="12.3" class="st0" width="2.8" height="2.8"/>
			<rect x="6.6" y="12.3" class="st0" width="2.8" height="2.8"/>
			<rect x="9.4" y="12.3" class="st0" width="2.8" height="2.8"/>
			<path class="st0" d="M14.4,15.1h-2.2v-2.8h2.8v2.2C15.1,14.8,14.8,15.1,14.4,15.1z"/>
		</g>
		<g>
			<path class="st1" d="M7.7,4.8H6.3c-0.1,0-0.1,0-0.1,0.1L3.8,7.7h0V5c0-0.1-0.1-0.2-0.2-0.2H2.8C2.7,4.8,2.7,4.9,2.7,5v6
				c0,0.1,0.1,0.2,0.2,0.2h0.8c0.1,0,0.2-0.1,0.2-0.2V8.3h0l2.5,2.8c0,0,0.1,0.1,0.1,0.1h1.4L5.2,8.1C5.1,8,5.1,7.9,5.1,7.8L7.7,4.8
				z"/>
			<path class="st1" d="M13,8.4c-0.1-0.1-0.2-0.2-0.3-0.3s-0.3-0.2-0.4-0.2v0c0.3-0.2,0.5-0.3,0.6-0.6C13,7,13.1,6.8,13.1,6.5
				c0-0.2,0-0.3-0.1-0.5s-0.1-0.3-0.2-0.4c-0.1-0.1-0.2-0.3-0.4-0.4C12.2,5.1,12,5,11.8,4.9c-0.3-0.1-0.7-0.1-1.1-0.1h-2
				C8.5,4.8,8.4,4.9,8.4,5v6c0,0.1,0.1,0.2,0.2,0.2h1.7c0.2,0,0.3,0,0.5,0c0.1,0,0.3,0,0.4,0c0.1,0,0.2,0,0.3,0c0.1,0,0.2,0,0.3-0.1
				c0.3-0.1,0.6-0.2,0.8-0.3c0.2-0.1,0.4-0.3,0.5-0.5c0.1-0.2,0.2-0.3,0.3-0.5s0.1-0.3,0.1-0.5c0-0.2,0-0.3-0.1-0.5
				C13.2,8.6,13.1,8.5,13,8.4z M9.6,5.8h1c0.2,0,0.3,0,0.4,0c0.1,0,0.2,0,0.3,0.1c0.2,0.1,0.4,0.2,0.4,0.3c0.1,0.1,0.1,0.3,0.1,0.5
				c0,0.2,0,0.3-0.1,0.4s-0.2,0.2-0.4,0.3c-0.2,0.1-0.4,0.1-0.7,0.1H9.6V5.8z M12.1,9.6c0,0.1-0.1,0.2-0.1,0.2
				c-0.1,0.1-0.2,0.1-0.3,0.2s-0.2,0.1-0.4,0.1c-0.1,0-0.2,0-0.4,0.1c-0.1,0-0.3,0-0.5,0H9.6V8.4h1.1c0.2,0,0.4,0,0.5,0
				c0.1,0,0.2,0,0.3,0.1c0.2,0.1,0.4,0.2,0.5,0.3s0.1,0.3,0.1,0.5C12.1,9.4,12.1,9.5,12.1,9.6z"/>
		</g>
	</g>
</g>
</svg>
