<?xml version="1.0" encoding="utf-8"?>
<!-- Generator: Adobe Illustrator 21.0.0, SVG Export Plug-In . SVG Version: 6.00 Build 0)  -->
<svg version="1.1" id="Layer_1" xmlns="http://www.w3.org/2000/svg" xmlns:xlink="http://www.w3.org/1999/xlink" x="0px" y="0px"
	 viewBox="0 0 15.5 19.9" style="enable-background:new 0 0 15.5 19.9;" xml:space="preserve">
<style type="text/css">
	.st0{fill:#0085FF;}
	.st1{fill:#FFFFFF;}
</style>
<g>
	<path class="st0" d="M14.1,1.4v17c0,0.2-0.2,0.3-0.3,0.2l-6-4.4c-0.1-0.1-0.2-0.1-0.2,0l-5.9,4.4c-0.1,0.1-0.3,0-0.3-0.2v-17
		c0-0.1,0.1-0.2,0.2-0.2h12.4C14.1,1.2,14.1,1.3,14.1,1.4z"/>
	<path class="st1" d="M7.8,11.6c-0.1,0-0.3-0.1-0.4-0.1L4.9,8.9c-0.2-0.2-0.2-0.5,0-0.7C5.1,8,5.4,8,5.6,8.2l2,2l2.4-4.5
		c0.1-0.2,0.4-0.3,0.7-0.2C11,5.7,11.1,6,11,6.3l-2.8,5C8.1,11.4,8,11.5,7.8,11.6C7.8,11.6,7.8,11.6,7.8,11.6z"/>
</g>
</svg>
