<?xml version="1.0" encoding="utf-8"?>
<!-- Generator: Adobe Illustrator 21.0.0, SVG Export Plug-In . SVG Version: 6.00 Build 0)  -->
<svg version="1.1" id="Layer_1" xmlns="http://www.w3.org/2000/svg" xmlns:xlink="http://www.w3.org/1999/xlink" x="0px" y="0px"
	 viewBox="0 0 15.5 19.9" style="enable-background:new 0 0 15.5 19.9;" xml:space="preserve">
<style type="text/css">
	.st0{fill:#8E8E8E;}
	.st1{fill:#FFFFFF;}
</style>
<g>
	<path class="st0" d="M14.2,1.7v17c0,0.2-0.2,0.3-0.3,0.2l-6-4.4c-0.1-0.1-0.2-0.1-0.2,0l-5.9,4.4c-0.1,0.1-0.3,0-0.3-0.2v-17
		c0-0.1,0.1-0.2,0.2-0.2H14C14.1,1.5,14.2,1.6,14.2,1.7z"/>
	<path class="st1" d="M10.6,8.2H8.5V6.2c0-0.3-0.3-0.6-0.6-0.6c-0.3,0-0.6,0.3-0.6,0.6v2.1H5.3c-0.3,0-0.6,0.3-0.6,0.6
		c0,0.3,0.3,0.6,0.6,0.6h2.1v2.1c0,0.3,0.3,0.6,0.6,0.6c0.3,0,0.6-0.3,0.6-0.6V9.4h2.1c0.3,0,0.6-0.3,0.6-0.6
		C11.1,8.5,10.9,8.2,10.6,8.2z"/>
</g>
</svg>
