<?xml version="1.0" encoding="utf-8"?>
<!-- Generator: Adobe Illustrator 21.0.0, SVG Export Plug-In . SVG Version: 6.00 Build 0)  -->
<svg version="1.1" id="Layer_1" xmlns="http://www.w3.org/2000/svg" xmlns:xlink="http://www.w3.org/1999/xlink" x="0px" y="0px"
	 viewBox="0 0 92.7 92.7" style="enable-background:new 0 0 92.7 92.7;" xml:space="preserve">
<style type="text/css">
	.st0{opacity:0.5;fill:#707070;}
	.st1{fill:#FFFFFF;}
</style>
<g id="Linkedin_11_">
	<circle id="back_91_" class="st0" cx="46.3" cy="46.3" r="42.5"/>
	<g id="Linkedin_14_">
		<path class="st1" d="M23.1,38.2H33v31.7h-9.9V38.2z M28.1,22.4c3.2,0,5.7,2.6,5.7,5.7c0,3.2-2.6,5.7-5.7,5.7
			c-3.2,0-5.7-2.6-5.7-5.7C22.4,25,24.9,22.4,28.1,22.4"/>
		<path class="st1" d="M39.2,38.2h9.5v4.3h0.1c1.3-2.5,4.5-5.1,9.3-5.1c10,0,11.8,6.6,11.8,15.1v17.4H60V54.5c0-3.7-0.1-8.4-5.1-8.4
			c-5.1,0-5.9,4-5.9,8.2V70h-9.9V38.2H39.2z"/>
	</g>
</g>
</svg>
