<?xml version="1.0" encoding="utf-8"?>
<!-- Generator: Adobe Illustrator 21.0.0, SVG Export Plug-In . SVG Version: 6.00 Build 0)  -->
<svg version="1.1" id="Layer_1" xmlns="http://www.w3.org/2000/svg" xmlns:xlink="http://www.w3.org/1999/xlink" x="0px" y="0px"
	 viewBox="0 0 92.7 92.7" style="enable-background:new 0 0 92.7 92.7;" xml:space="preserve">
<style type="text/css">
	.st0{fill:#FFFFFF;}
	.st1{opacity:0.5;fill:#707070;}
</style>
<g>
	<path class="st0" d="M64.3,29.7l-41,15.7c-2.8,1.1-2.8,2.7-0.5,3.4l10.5,3.3l24.3-15.3c1.1-0.7,2.2-0.3,1.3,0.4L39.3,55l0,0
		l-0.7,10.8c1,0,1.5-0.5,2.1-1l0,0l5.1-5l10.6,7.8c2,1.1,3.4,0.5,3.9-1.8l7-32.9C67.9,30.1,66.1,28.8,64.3,29.7z"/>
	<path class="st1" d="M46.3,3.8c-23.5,0-42.5,19-42.5,42.5s19,42.5,42.5,42.5s42.5-19,42.5-42.5S69.8,3.8,46.3,3.8z M67.2,33
		l-7,32.9c-0.5,2.3-1.9,2.9-3.9,1.8l-10.6-7.8l-5.1,5l0,0c-0.6,0.6-1,1-2.1,1L39.3,55l0,0L59,37.2c0.9-0.8-0.2-1.1-1.3-0.4
		L33.3,52.1l-10.5-3.3c-2.3-0.7-2.3-2.3,0.5-3.4l40.9-15.8C66.1,28.8,67.9,30.1,67.2,33z"/>
</g>
</svg>
