<?xml version="1.0" encoding="utf-8"?>
<!-- Generator: Adobe Illustrator 21.0.0, SVG Export Plug-In . SVG Version: 6.00 Build 0)  -->
<svg version="1.1" id="Layer_1" xmlns="http://www.w3.org/2000/svg" xmlns:xlink="http://www.w3.org/1999/xlink" x="0px" y="0px"
	 viewBox="0 0 92.7 92.7" style="enable-background:new 0 0 92.7 92.7;" xml:space="preserve">
<style type="text/css">
	.st0{fill:#FFFFFF;}
	.st1{opacity:0.5;fill:#707070;}
</style>
<g>
	<path class="st0" d="M67.4,57.2c-0.9-1.7-4.7-5.4-4.7-5.4c-3.5-3.2-3.5-3.5-0.2-7.7l1.6-2.1c3.6-4.9,3.8-6.5,3.6-7
		c-0.1-0.3-0.7-0.5-1.6-0.5h-7.9c-0.2,0-0.4,0.1-0.5,0.1c-0.2,0.1-0.4,0.5-0.5,0.6c-0.7,1.9-1.6,3.8-2.6,5.6
		c-3.3,5.6-4.5,5.6-4.9,5.6c-0.2,0-0.4,0-0.5-0.2c-1.2-0.8-1.1-2.6-1.1-4.3c0-0.3,0-0.6,0-0.8c0-1.2,0-2.3,0.1-3.2
		c0.1-3.2,0.1-4.2-1.4-4.5c-0.7-0.2-1.2-0.3-3.2-0.3h-1c-1.8,0-3.7,0.1-4.7,0.6c-0.3,0.2-0.7,0.4-0.9,0.7c0.6,0.1,1.5,0.4,2.1,1.2
		c0.8,1,0.8,3.2,0.8,3.4c0.1,1.1,0.3,6.4-1.1,7.3c-0.2,0.1-0.4,0.2-0.6,0.2c-1.1,0-2.6-1.7-4.9-5.8c-1.4-2.5-2.3-4.7-2.6-5.3
		c-0.2-0.5-0.5-1-1.4-1h-6.7c-0.7,0-1.4,0.4-1.1,1.2c0.1,0.1,5.3,12.5,11.2,18.7c4.8,5,10.2,5.4,11.2,5.4h3c0.6,0,1.4-0.6,1.4-1.6
		c0-3.2,1.1-4.4,1.9-4.7c0.1-0.1,0.3-0.1,0.4-0.1c1.1,0,2.2,1.3,3.5,2.8c0.9,1,1.8,2,2.7,2.7c1.2,0.8,2.1,0.9,2.6,0.9H66
		c0.4,0,1.4-0.3,1.7-0.9C67.9,58.4,67.8,57.9,67.4,57.2C67.4,57.3,67.4,57.2,67.4,57.2z"/>
	<path class="st1" d="M46.3,3.8c-23.5,0-42.5,19-42.5,42.5s19,42.5,42.5,42.5s42.5-19,42.5-42.5C88.8,22.9,69.8,3.8,46.3,3.8z
		 M67.7,58.8c-0.3,0.6-1.4,0.9-1.7,0.9h-6.6c-0.5,0-1.4-0.1-2.6-0.9c-0.9-0.6-1.8-1.7-2.7-2.7c-1.3-1.5-2.4-2.8-3.5-2.8
		c-0.1,0-0.3,0-0.4,0.1c-0.8,0.3-1.9,1.5-1.9,4.7c0,1-0.8,1.6-1.4,1.6h-3c-1,0-6.4-0.4-11.2-5.4c-5.8-6.2-11.1-18.6-11.2-18.7
		c-0.3-0.8,0.4-1.2,1.1-1.2h6.7c0.9,0,1.2,0.5,1.4,1c0.2,0.6,1.1,2.8,2.6,5.3c2.3,4.1,3.8,5.8,4.9,5.8c0.2,0,0.4-0.1,0.6-0.2
		c1.5-0.8,1.2-6.2,1.1-7.3c0-0.2,0-2.4-0.8-3.4c-0.6-0.8-1.5-1.1-2.1-1.2c0.2-0.3,0.5-0.6,0.9-0.7c1-0.5,2.9-0.6,4.7-0.6h1
		c2,0,2.5,0.2,3.2,0.3c1.5,0.3,1.5,1.3,1.4,4.5c0,0.9-0.1,2-0.1,3.2c0,0.3,0,0.6,0,0.8c0,1.6-0.1,3.5,1.1,4.3
		c0.2,0.1,0.3,0.2,0.5,0.2c0.4,0,1.6,0,4.9-5.6c1-1.8,1.9-3.7,2.6-5.6c0.1-0.1,0.3-0.5,0.5-0.6s0.3-0.1,0.5-0.1h7.9
		c0.9,0,1.5,0.1,1.6,0.5c0.2,0.5,0,2.1-3.6,7l-1.6,2c-3.3,4.3-3.3,4.5,0.2,7.7c0,0,3.8,3.7,4.7,5.4c0,0,0,0.1,0.1,0.1
		C67.8,57.9,67.9,58.4,67.7,58.8z"/>
</g>
</svg>
