<?xml version="1.0" encoding="utf-8"?>
<!-- Generator: Adobe Illustrator 21.0.0, SVG Export Plug-In . SVG Version: 6.00 Build 0)  -->
<svg version="1.1" id="Layer_1" xmlns="http://www.w3.org/2000/svg" xmlns:xlink="http://www.w3.org/1999/xlink" x="0px" y="0px"
	 viewBox="0 0 92.7 92.7" style="enable-background:new 0 0 92.7 92.7;" xml:space="preserve">
<style type="text/css">
	.st0{opacity:0.5;fill:#707070;}
	.st1{fill:#FFFFFF;}
</style>
<g id="Github_11_">
	<circle id="back_92_" class="st0" cx="46.3" cy="46.3" r="42.5"/>
	<g id="Github_12_">
		<path class="st1" d="M46.3,23.1c-13.1,0-23.8,10.7-23.8,23.8c0,10.5,6.8,19.4,16.3,22.6c1.2,0.2,1.6-0.5,1.6-1.1s0-2.4,0-4.4
			c-6.6,1.4-8-2.8-8-2.8c-1.1-2.8-2.6-3.5-2.6-3.5c-2.2-1.5,0.2-1.4,0.2-1.4c2.4,0.2,3.6,2.5,3.6,2.5c2.1,3.6,5.6,2.6,6.9,2
			c0.2-1.5,0.8-2.6,1.5-3.2C36.7,57,31.2,55,31.2,45.8c0-2.6,0.9-4.7,2.5-6.4c-0.2-0.6-1.1-3,0.2-6.3c0,0,2-0.6,6.5,2.4
			c1.9-0.5,3.9-0.8,6-0.8c2,0,4.1,0.3,6,0.8c4.5-3.1,6.5-2.4,6.5-2.4c1.3,3.3,0.5,5.7,0.2,6.3c1.5,1.7,2.4,3.8,2.4,6.4
			c0,9.1-5.6,11.2-10.9,11.7c0.9,0.7,1.6,2.2,1.6,4.4c0,3.2,0,5.7,0,6.5c0,0.6,0.4,1.4,1.6,1.1c9.5-3.2,16.3-12.1,16.3-22.6
			C70.1,33.8,59.5,23.1,46.3,23.1z"/>
		<path class="st1" d="M31.5,57.3c-0.1,0.1-0.2,0.2-0.4,0.1c-0.2-0.1-0.3-0.2-0.2-0.4c0.1-0.1,0.2-0.2,0.4-0.1
			C31.5,57,31.6,57.2,31.5,57.3L31.5,57.3z"/>
		<path class="st1" d="M32.5,58.4c-0.1,0.1-0.3,0.1-0.5-0.1c-0.2-0.2-0.2-0.4-0.1-0.5s0.3-0.1,0.5,0.1C32.6,58,32.6,58.3,32.5,58.4
			L32.5,58.4z"/>
		<path class="st1" d="M33.5,59.7c-0.1,0.1-0.4,0-0.5-0.2s-0.1-0.5,0-0.6s0.4,0,0.5,0.2C33.6,59.4,33.6,59.6,33.5,59.7L33.5,59.7z"
			/>
		<path class="st1" d="M34.7,61.1c-0.1,0.1-0.4,0.1-0.6-0.1c-0.2-0.2-0.3-0.5-0.1-0.6c0.1-0.1,0.4-0.1,0.6,0.1
			C34.8,60.6,34.9,60.9,34.7,61.1L34.7,61.1z"/>
		<path class="st1" d="M36.5,61.8c-0.1,0.2-0.3,0.3-0.6,0.2s-0.4-0.3-0.4-0.5c0.1-0.2,0.3-0.3,0.6-0.2
			C36.4,61.4,36.6,61.6,36.5,61.8L36.5,61.8z"/>
		<path class="st1" d="M38.5,62c0,0.2-0.2,0.4-0.5,0.4s-0.5-0.2-0.5-0.3c0-0.2,0.2-0.4,0.5-0.4C38.2,61.6,38.5,61.8,38.5,62L38.5,62
			z"/>
		<path class="st1" d="M40.3,61.7c0,0.2-0.2,0.4-0.4,0.4c-0.3,0.1-0.5-0.1-0.6-0.3c0-0.2,0.2-0.4,0.4-0.4
			C40,61.4,40.2,61.5,40.3,61.7L40.3,61.7z"/>
	</g>
</g>
</svg>
