<?xml version="1.0" encoding="utf-8"?>
<!-- Generator: Adobe Illustrator 21.0.0, SVG Export Plug-In . SVG Version: 6.00 Build 0)  -->
<svg version="1.1" id="Layer_1" xmlns="http://www.w3.org/2000/svg" xmlns:xlink="http://www.w3.org/1999/xlink" x="0px" y="0px"
	 viewBox="0 0 64.5 26" style="enable-background:new 0 0 64.5 26;" xml:space="preserve">
<style type="text/css">
	.st0{fill:#FFFFFF;}
</style>
<g>
	<path class="st0" d="M62.9,0.8h-4.1h-4.1h-4.1h-4.1h-4.1h-4.1h-4.1h-4.1h-4.1h-4.1H18h-4.1H9.8H5.7H1.6H1.5c-0.3,0-0.6,0.3-0.6,0.6
		v23c0,0.3,0.3,0.6,0.6,0.6h0.2h4.1h4.1h4.1H18h4.1h4.1h4.1h4.1h4.1h4.1h4.1h4.1h4.1h4.1h4.1c0.3,0,0.6-0.3,0.6-0.6v-4.1V5.5V1.4
		C63.5,1.1,63.2,0.8,62.9,0.8z M58.8,19.7h-4.1h-4.1h-4.1h-4.1h-4.1h-4.1h-4.1h-4.1h-4.1H18h-4.1H9.8H5.7H2.1V6.1h3.7h4.1h4.1H18
		h4.1h4.1h4.1h4.1h4.1h4.1h4.1h4.1h4.1h4.1h3.5v13.6H58.8z M62.3,4.9h-2.9V2h2.9V4.9z M58.2,4.9h-2.9V2h2.9V4.9z M54.1,4.9h-2.9V2
		h2.9V4.9z M50,4.9h-2.9V2H50V4.9z M46,4.9h-2.9V2H46V4.9z M41.9,4.9H39V2h2.9V4.9z M37.8,4.9h-2.9V2h2.9V4.9z M33.7,4.9h-2.9V2h2.9
		V4.9z M29.6,4.9h-2.9V2h2.9V4.9z M25.5,4.9h-2.9V2h2.9V4.9z M21.5,4.9h-2.9V2h2.9V4.9z M17.4,4.9h-2.9V2h2.9V4.9z M13.3,4.9h-2.9V2
		h2.9V4.9z M9.2,4.9H6.3V2h2.9V4.9z M5.1,2v2.9H2.2V2H5.1z M2.2,20.9h2.9v2.9H2.2V20.9z M6.3,20.9h2.9v2.9H6.3V20.9z M10.4,20.9h2.9
		v2.9h-2.9V20.9z M14.5,20.9h2.9v2.9h-2.9V20.9z M18.6,20.9h2.9v2.9h-2.9V20.9z M22.7,20.9h2.9v2.9h-2.9V20.9z M26.7,20.9h2.9v2.9
		h-2.9V20.9z M30.8,20.9h2.9v2.9h-2.9V20.9z M34.9,20.9h2.9v2.9h-2.9V20.9z M39,20.9h2.9v2.9H39V20.9z M43.1,20.9H46v2.9h-2.9V20.9z
		 M47.2,20.9H50v2.9h-2.9V20.9z M51.2,20.9h2.9v2.9h-2.9V20.9z M55.3,20.9h2.9v2.9h-2.9V20.9z M62.3,23.8h-2.9v-2.9h2.9V23.8z"/>
	<path class="st0" d="M7.3,12.7L10.4,9H8.7C8.7,9,8.6,9,8.6,9.1l-2.9,3.5h0V9.2C5.6,9.1,5.5,9,5.4,9h-1C4.3,9,4.2,9.1,4.2,9.2v7.4
		c0,0.1,0.1,0.2,0.2,0.2h1c0.1,0,0.2-0.1,0.2-0.2v-3.3h0l3.1,3.5c0,0,0.1,0.1,0.2,0.1h1.7L7.3,13C7.2,13,7.2,12.8,7.3,12.7z"/>
	<path class="st0" d="M13.2,9h-1C12.1,9,12,9.1,12,9.2v7.4c0,0.1,0.1,0.2,0.2,0.2h1c0.1,0,0.2-0.1,0.2-0.2V9.2
		C13.5,9.1,13.4,9,13.2,9z"/>
	<path class="st0" d="M22.2,9h-1C21.1,9,21,9.1,21,9.2v3.3c0,0.5,0,1.2,0.1,2.2h0c-0.4-0.6-0.8-1.3-1.4-2.1l-2.5-3.5
		C17.1,9,17,9,17,9h-1.2c-0.1,0-0.2,0.1-0.2,0.2v7.4c0,0.1,0.1,0.2,0.2,0.2h1c0.1,0,0.2-0.1,0.2-0.2v-3.3c0-0.5,0-1.3-0.1-2.2h0
		c0.5,0.8,0.9,1.5,1.4,2.2l2.5,3.5c0,0.1,0.1,0.1,0.2,0.1h1.2c0.1,0,0.2-0.1,0.2-0.2V9.2C22.4,9.1,22.3,9,22.2,9z"/>
	<path class="st0" d="M30.8,10c-0.3-0.4-0.7-0.6-1.2-0.8s-1-0.3-1.6-0.3S26.9,9,26.4,9.2s-0.9,0.5-1.2,0.8s-0.6,0.8-0.7,1.3
		s-0.3,1-0.3,1.6s0.1,1.1,0.3,1.6s0.4,0.9,0.7,1.3c0.3,0.4,0.7,0.6,1.2,0.8s1,0.3,1.6,0.3s1.1-0.1,1.6-0.3s0.9-0.5,1.2-0.8
		c0.3-0.4,0.6-0.8,0.7-1.3s0.3-1,0.3-1.6s-0.1-1.1-0.3-1.6S31.2,10.4,30.8,10z M30.2,14.2c-0.1,0.4-0.3,0.7-0.5,0.9
		s-0.5,0.4-0.7,0.5s-0.6,0.2-0.9,0.2s-0.7-0.1-0.9-0.2s-0.5-0.3-0.7-0.5s-0.4-0.5-0.5-0.9s-0.2-0.8-0.2-1.3s0.1-0.9,0.2-1.3
		s0.3-0.7,0.5-0.9s0.5-0.4,0.7-0.5s0.6-0.2,0.9-0.2s0.7,0.1,0.9,0.2s0.5,0.3,0.7,0.5s0.4,0.5,0.5,0.9s0.2,0.8,0.2,1.3
		S30.3,13.8,30.2,14.2z"/>
	<path class="st0" d="M43.7,13.4c-0.1-0.1-0.3-0.3-0.4-0.4s-0.3-0.2-0.5-0.3v0c0.4-0.2,0.6-0.4,0.8-0.7s0.2-0.6,0.2-0.9
		c0-0.2,0-0.4-0.1-0.6s-0.2-0.4-0.3-0.5S43,9.7,42.8,9.5s-0.4-0.3-0.7-0.3C41.8,9.1,41.3,9,40.8,9h-2.5C38.1,9,38,9.1,38,9.2v7.4
		c0,0.1,0.1,0.2,0.2,0.2h2c0.2,0,0.4,0,0.6,0s0.3,0,0.5,0s0.3,0,0.4,0s0.2,0,0.3-0.1c0.4-0.1,0.7-0.2,1-0.4s0.5-0.4,0.6-0.6
		s0.3-0.4,0.3-0.6s0.1-0.4,0.1-0.6c0-0.2,0-0.4-0.1-0.6S43.8,13.5,43.7,13.4z M39.5,10.2h1.2c0.2,0,0.4,0,0.5,0s0.3,0,0.4,0.1
		c0.3,0.1,0.4,0.2,0.5,0.4s0.2,0.3,0.2,0.6c0,0.2,0,0.4-0.1,0.5s-0.2,0.3-0.5,0.4c-0.2,0.1-0.5,0.1-0.9,0.1h-1.3V10.2z M42.5,14.8
		c0,0.1-0.1,0.2-0.2,0.3s-0.2,0.2-0.3,0.2s-0.3,0.1-0.5,0.2c-0.1,0-0.3,0.1-0.5,0.1s-0.4,0-0.6,0h-0.9v-2.2h1.4c0.2,0,0.4,0,0.6,0
		s0.3,0,0.4,0.1c0.3,0.1,0.4,0.2,0.6,0.4s0.2,0.4,0.2,0.6C42.6,14.6,42.5,14.7,42.5,14.8z"/>
	<path class="st0" d="M49.2,9h-1c-0.1,0-0.2,0.1-0.2,0.1L45,16.8h1.4c0.1,0,0.2-0.1,0.2-0.2l0.7-1.7c0-0.1,0.1-0.2,0.2-0.2h2.6
		c0.1,0,0.2,0.1,0.2,0.2l0.7,1.7c0,0.1,0.1,0.2,0.2,0.2h1.4l-3.1-7.7C49.4,9.1,49.3,9,49.2,9z M49.8,13.7h-2L48,13
		c0.2-0.6,0.5-1.2,0.7-2.1h0c0.3,0.8,0.5,1.5,0.7,2.1L49.8,13.7z"/>
	<path class="st0" d="M57.8,13.6L57.8,13.6c0.6-0.2,1.1-0.5,1.4-0.9s0.5-0.8,0.5-1.4c0-0.5-0.1-1-0.4-1.3s-0.6-0.6-1.1-0.8
		c-0.2-0.1-0.5-0.2-0.9-0.2S56.6,9,56.3,9h-2.2c-0.1,0-0.2,0.1-0.2,0.2v7.4c0,0.1,0.1,0.2,0.2,0.2h1c0.1,0,0.2-0.1,0.2-0.2v-2.8h1
		l2.1,2.9c0,0.1,0.1,0.1,0.2,0.1h1.6L57.8,13.6z M57.4,12.4c-0.2,0.1-0.3,0.1-0.6,0.1s-0.5,0-0.8,0h-0.7v-2.4h1c0.3,0,0.6,0,0.8,0
		s0.4,0.1,0.5,0.1c0.2,0.1,0.4,0.2,0.4,0.4s0.1,0.3,0.1,0.6c0,0.2-0.1,0.5-0.2,0.7S57.7,12.3,57.4,12.4z"/>
	<path class="st0" d="M36.5,10.7h-3.2c-0.2,0-0.3,0.1-0.4,0.2s0,0.3,0.1,0.4l1.5,1.6v1.4H34c-0.2,0-0.4,0.2-0.4,0.4s0.2,0.4,0.4,0.4
		h1.8c0.2,0,0.4-0.2,0.4-0.4s-0.2-0.4-0.4-0.4h-0.5V13l1.5-1.6c0.1-0.1,0.1-0.3,0.1-0.4S36.6,10.7,36.5,10.7z M34.9,12.2l-0.7-0.7
		h1.4L34.9,12.2z"/>
</g>
</svg>
